# xmcd
#
# Track frame offsets:
#	150
#	13339
#	27873
#	43093
#	56686
#	72467
#	86012
#	105652
#	118817
#	136949
#	154739
#	175197
#
# Disc length: 2564 seconds
#
# Revision: 1
# Processed by: cddbd v1.5.2PL0 Copyright (c) Steve Scherf et al.
# Submitted via: audiograbber 1.83.01
#
DISCID=a50a020c
DTITLE=Dale Ann Bradley - Catch Tomorrow
DYEAR=2006
DGENRE=Bluegrass
TTITLE0=Rita Mae
TTITLE1=LIve Forever
TTITLE2=Holding On To Nothing
TTITLE3=I Can
TTITLE4=Run, Rufus Run
TTITLE5=Memories, Miles And Tears
TTITLE6=Pass Me Not
TTITLE7=Julia Belle
TTITLE8=Grandma
TTITLE9=Mercy Railroad
TTITLE10=When The Mist Comes Again
TTITLE11=Me And Bobby McGee
EXTD=
EXTT0=
EXTT1=
EXTT2=
EXTT3=
EXTT4=
EXTT5=
EXTT6=
EXTT7=
EXTT8=
EXTT9=
EXTT10=
EXTT11=
PLAYORDER=
